<svg xmlns="http://www.w3.org/2000/svg" version="1.1" xmlns:xlink="http://www.w3.org/1999/xlink" xmlns:svgjs="http://svgjs.dev/svgjs" width="1000" height="1000" viewBox="0 0 1000 1000"><rect width="1000" height="1000" fill="#ffffff"></rect><g transform="matrix(0.7,0,0,0.7,149.84897959183667,150.19913061224486)"><svg viewBox="0 0 343 343" data-background-color="#ffffff" preserveAspectRatio="xMidYMid meet" height="999" width="1000" xmlns="http://www.w3.org/2000/svg" xmlns:xlink="http://www.w3.org/1999/xlink"><g id="tight-bounds" transform="matrix(1,0,0,1,0.0740000000000407,0.07400000000001228)"><svg viewBox="0 0 342.85155851775386 342.85155851775386" height="342.85155851775386" width="342.85155851775386"><g><svg></svg></g><g><svg viewBox="0 0 342.85155851775386 342.85155851775386" height="342.85155851775386" width="342.85155851775386"><g><path d="M0 171.426c0-94.676 76.75-171.426 171.426-171.426 94.676 0 171.426 76.75 171.426 171.426 0 94.676-76.75 171.426-171.426 171.426-94.676 0-171.426-76.75-171.426-171.426zM171.426 340.24c93.234 0 168.814-75.581 168.814-168.814 0-93.234-75.581-168.814-168.814-168.815-93.234 0-168.814 75.581-168.815 168.815 0 93.234 75.581 168.814 168.815 168.814z" data-fill-palette-color="tertiary" fill="#ee3e38" stroke="transparent"></path><ellipse rx="164.56874808852186" ry="164.56874808852186" cx="171.42577925887693" cy="171.42577925887693" fill="#ee3e38" stroke="transparent" stroke-width="0" fill-opacity="1" data-fill-palette-color="tertiary"></ellipse></g><g transform="matrix(1,0,0,1,64.84655864529837,144.58119397064945)"><svg viewBox="0 0 213.1584412271571 53.689170576454984" height="53.689170576454984" width="213.1584412271571"><g><svg viewBox="0 0 213.1584412271571 53.689170576454984" height="53.689170576454984" width="213.1584412271571"><g><svg viewBox="0 0 213.1584412271571 53.689170576454984" height="53.689170576454984" width="213.1584412271571"><g><svg viewBox="0 0 213.1584412271571 53.689170576454984" height="53.689170576454984" width="213.1584412271571"><g><svg viewBox="0 0 213.1584412271571 53.689170576454984" height="53.689170576454984" width="213.1584412271571"><g><svg viewBox="0 0 213.1584412271571 28.957373147840208" height="28.957373147840208" width="213.1584412271571"><g transform="matrix(1,0,0,1,0,0)"><svg width="213.1584412271571" viewBox="4.349999904632568 -35.5 264.97998046875 36" height="28.957373147840208" data-palette-color="#ffffff"><path d="M19.6 0L5.5 0Q4.95 0 4.65-0.33 4.35-0.65 4.35-1.15L4.35-1.15 4.35-33.8Q4.35-34.35 4.65-34.68 4.95-35 5.5-35L5.5-35 19.2-35Q22.95-35 25.33-33.77 27.7-32.55 28.83-30.45 29.95-28.35 29.95-25.75L29.95-25.75Q29.95-23.7 29.28-22.23 28.6-20.75 27.6-19.83 26.6-18.9 25.65-18.4L25.65-18.4Q27.6-17.45 29.13-15.3 30.65-13.15 30.65-10.1L30.65-10.1Q30.65-7.35 29.4-5.05 28.15-2.75 25.68-1.38 23.2 0 19.6 0L19.6 0ZM9.25-16.2L9.25-4.05 18.95-4.05Q22.15-4.05 23.9-5.8 25.65-7.55 25.65-10.1L25.65-10.1Q25.65-12.75 23.9-14.48 22.15-16.2 18.95-16.2L18.95-16.2 9.25-16.2ZM9.25-30.95L9.25-20.2 18.45-20.2Q21.65-20.2 23.3-21.68 24.95-23.15 24.95-25.7L24.95-25.7Q24.95-28.25 23.3-29.6 21.65-30.95 18.45-30.95L18.45-30.95 9.25-30.95ZM47.75 0.5L47.75 0.5Q43.95 0.5 41.4-0.95 38.85-2.4 37.5-4.98 36.15-7.55 36-10.85L36-10.85Q35.95-11.7 35.95-13.03 35.95-14.35 36-15.15L36-15.15Q36.15-18.5 37.52-21.05 38.9-23.6 41.45-25.05 44-26.5 47.75-26.5L47.75-26.5Q51.5-26.5 54.05-25.05 56.6-23.6 57.97-21.05 59.35-18.5 59.5-15.15L59.5-15.15Q59.55-14.35 59.55-13.03 59.55-11.7 59.5-10.85L59.5-10.85Q59.35-7.55 58-4.98 56.65-2.4 54.1-0.95 51.55 0.5 47.75 0.5ZM47.75-3.35L47.75-3.35Q50.85-3.35 52.7-5.33 54.55-7.3 54.7-11.1L54.7-11.1Q54.75-11.85 54.75-13 54.75-14.15 54.7-14.9L54.7-14.9Q54.55-18.7 52.7-20.68 50.85-22.65 47.75-22.65L47.75-22.65Q44.65-22.65 42.77-20.68 40.9-18.7 40.8-14.9L40.8-14.9Q40.75-14.15 40.75-13 40.75-11.85 40.8-11.1L40.8-11.1Q40.9-7.3 42.77-5.33 44.65-3.35 47.75-3.35ZM69.34 0L66.95 0Q66.45 0 66.12-0.33 65.8-0.65 65.8-1.15L65.8-1.15 65.8-24.85Q65.8-25.35 66.12-25.68 66.45-26 66.95-26L66.95-26 69.2-26Q69.7-26 70.02-25.68 70.34-25.35 70.34-24.85L70.34-24.85 70.34-23.1Q71.5-24.65 73.25-25.58 75-26.5 77.45-26.5L77.45-26.5Q83.09-26.55 85.45-21.9L85.45-21.9Q86.59-24 88.8-25.25 91-26.5 93.8-26.5L93.8-26.5Q96.4-26.5 98.52-25.3 100.65-24.1 101.87-21.68 103.09-19.25 103.09-15.6L103.09-15.6 103.09-1.15Q103.09-0.65 102.77-0.33 102.45 0 101.95 0L101.95 0 99.59 0Q99.09 0 98.77-0.33 98.45-0.65 98.45-1.15L98.45-1.15 98.45-15.15Q98.45-17.95 97.65-19.55 96.84-21.15 95.5-21.8 94.15-22.45 92.55-22.45L92.55-22.45Q91.25-22.45 89.9-21.8 88.55-21.15 87.67-19.55 86.8-17.95 86.8-15.15L86.8-15.15 86.8-1.15Q86.8-0.65 86.47-0.33 86.15 0 85.65 0L85.65 0 83.3 0Q82.8 0 82.47-0.33 82.15-0.65 82.15-1.15L82.15-1.15 82.15-15.15Q82.15-17.95 81.3-19.55 80.45-21.15 79.09-21.8 77.75-22.45 76.25-22.45L76.25-22.45Q74.95-22.45 73.59-21.8 72.25-21.15 71.37-19.55 70.5-17.95 70.5-15.2L70.5-15.2 70.5-1.15Q70.5-0.65 70.17-0.33 69.84 0 69.34 0L69.34 0ZM123.09 0.5L123.09 0.5Q120.09 0.5 118.09-0.58 116.09-1.65 114.89-3.25L114.89-3.25 114.89-1.15Q114.89-0.65 114.57-0.33 114.24 0 113.74 0L113.74 0 111.44 0Q110.94 0 110.62-0.33 110.29-0.65 110.29-1.15L110.29-1.15 110.29-34.35Q110.29-34.85 110.62-35.18 110.94-35.5 111.44-35.5L111.44-35.5 113.89-35.5Q114.39-35.5 114.69-35.18 114.99-34.85 114.99-34.35L114.99-34.35 114.99-22.85Q116.24-24.4 118.22-25.45 120.19-26.5 123.09-26.5L123.09-26.5Q125.89-26.5 127.87-25.53 129.84-24.55 131.12-22.85 132.39-21.15 133.04-19 133.69-16.85 133.79-14.5L133.79-14.5Q133.84-13.7 133.84-13 133.84-12.3 133.79-11.5L133.79-11.5Q133.69-9.1 133.04-6.95 132.39-4.8 131.12-3.13 129.84-1.45 127.87-0.48 125.89 0.5 123.09 0.5ZM122.04-3.55L122.04-3.55Q124.64-3.55 126.12-4.67 127.59-5.8 128.24-7.63 128.89-9.45 128.99-11.55L128.99-11.55Q129.04-13 128.99-14.45L128.99-14.45Q128.89-16.55 128.24-18.38 127.59-20.2 126.12-21.33 124.64-22.45 122.04-22.45L122.04-22.45Q119.69-22.45 118.14-21.35 116.59-20.25 115.82-18.55 115.04-16.85 114.99-15.1L114.99-15.1Q114.94-14.3 114.94-13.18 114.94-12.05 114.99-11.25L114.99-11.25Q115.09-9.4 115.82-7.63 116.54-5.85 118.07-4.7 119.59-3.55 122.04-3.55ZM147.24 0.5L147.24 0.5Q144.74 0.5 142.69-0.5 140.64-1.5 139.39-3.2 138.14-4.9 138.14-7.05L138.14-7.05Q138.14-10.5 140.94-12.55 143.74-14.6 148.24-15.25L148.24-15.25 155.69-16.3 155.69-17.75Q155.69-20.15 154.32-21.5 152.94-22.85 149.84-22.85L149.84-22.85Q147.64-22.85 146.24-21.95 144.84-21.05 144.29-19.65L144.29-19.65Q143.99-18.9 143.24-18.9L143.24-18.9 140.99-18.9Q140.44-18.9 140.17-19.23 139.89-19.55 139.89-20L139.89-20Q139.89-20.75 140.47-21.85 141.04-22.95 142.24-24 143.44-25.05 145.32-25.78 147.19-26.5 149.89-26.5L149.89-26.5Q152.89-26.5 154.94-25.73 156.99-24.95 158.17-23.65 159.34-22.35 159.87-20.7 160.39-19.05 160.39-17.35L160.39-17.35 160.39-1.15Q160.39-0.65 160.07-0.33 159.74 0 159.24 0L159.24 0 156.94 0Q156.39 0 156.09-0.33 155.79-0.65 155.79-1.15L155.79-1.15 155.79-3.3Q155.14-2.4 154.04-1.53 152.94-0.65 151.29-0.08 149.64 0.5 147.24 0.5ZM148.29-3.25L148.29-3.25Q150.34-3.25 152.04-4.13 153.74-5 154.72-6.85 155.69-8.7 155.69-11.5L155.69-11.5 155.69-12.9 149.89-12.05Q146.34-11.55 144.54-10.38 142.74-9.2 142.74-7.4L142.74-7.4Q142.74-6 143.57-5.08 144.39-4.15 145.67-3.7 146.94-3.25 148.29-3.25ZM186.34 0L167.09 0Q166.59 0 166.26-0.33 165.94-0.65 165.94-1.15L165.94-1.15 165.94-2.9Q165.94-3.35 166.16-3.75 166.39-4.15 166.64-4.5L166.64-4.5 180.44-22.05 167.54-22.05Q167.04-22.05 166.71-22.35 166.39-22.65 166.39-23.2L166.39-23.2 166.39-24.85Q166.39-25.35 166.71-25.68 167.04-26 167.54-26L167.54-26 185.34-26Q185.84-26 186.16-25.68 186.49-25.35 186.49-24.85L186.49-24.85 186.49-23Q186.49-22.55 186.26-22.2 186.04-21.85 185.79-21.45L185.79-21.45 172.14-3.95 186.34-3.95Q186.89-3.95 187.19-3.65 187.49-3.35 187.49-2.8L187.49-2.8 187.49-1.15Q187.49-0.65 187.19-0.33 186.89 0 186.34 0L186.34 0ZM202.74 0.5L202.74 0.5Q199.54 0.5 197.31-0.93 195.09-2.35 193.94-4.9 192.79-7.45 192.79-10.75L192.79-10.75 192.79-24.85Q192.79-25.35 193.11-25.68 193.44-26 193.94-26L193.94-26 196.44-26Q196.94-26 197.26-25.68 197.59-25.35 197.59-24.85L197.59-24.85 197.59-11Q197.59-3.55 204.09-3.55L204.09-3.55Q207.19-3.55 209.06-5.53 210.94-7.5 210.94-11L210.94-11 210.94-24.85Q210.94-25.35 211.26-25.68 211.59-26 212.09-26L212.09-26 214.59-26Q215.09-26 215.39-25.68 215.69-25.35 215.69-24.85L215.69-24.85 215.69-1.15Q215.69-0.65 215.39-0.33 215.09 0 214.59 0L214.59 0 212.24 0Q211.74 0 211.41-0.33 211.09-0.65 211.09-1.15L211.09-1.15 211.09-3.35Q209.74-1.6 207.81-0.55 205.89 0.5 202.74 0.5ZM226.68 0L224.33 0Q223.83 0 223.51-0.33 223.18-0.65 223.18-1.15L223.18-1.15 223.18-34.35Q223.18-34.85 223.51-35.18 223.83-35.5 224.33-35.5L224.33-35.5 226.68-35.5Q227.18-35.5 227.51-35.18 227.83-34.85 227.83-34.35L227.83-34.35 227.83-16.95 237.68-25.15Q238.28-25.65 238.61-25.83 238.93-26 239.68-26L239.68-26 242.33-26Q242.78-26 243.08-25.7 243.38-25.4 243.38-24.95L243.38-24.95Q243.38-24.75 243.26-24.5 243.13-24.25 242.78-24L242.78-24 231.23-14.4 244.03-1.95Q244.63-1.45 244.63-1.05L244.63-1.05Q244.63-0.6 244.33-0.3 244.03 0 243.58 0L243.58 0 240.98 0Q240.23 0 239.88-0.18 239.53-0.35 238.98-0.85L238.98-0.85 227.83-11.5 227.83-1.15Q227.83-0.65 227.51-0.33 227.18 0 226.68 0L226.68 0ZM256.18 0.5L256.18 0.5Q253.68 0.5 251.63-0.5 249.58-1.5 248.33-3.2 247.08-4.9 247.08-7.05L247.08-7.05Q247.08-10.5 249.88-12.55 252.68-14.6 257.18-15.25L257.18-15.25 264.63-16.3 264.63-17.75Q264.63-20.15 263.26-21.5 261.88-22.85 258.78-22.85L258.78-22.85Q256.58-22.85 255.18-21.95 253.78-21.05 253.23-19.65L253.23-19.65Q252.93-18.9 252.18-18.9L252.18-18.9 249.93-18.9Q249.38-18.9 249.11-19.23 248.83-19.55 248.83-20L248.83-20Q248.83-20.75 249.41-21.85 249.98-22.95 251.18-24 252.38-25.05 254.26-25.78 256.13-26.5 258.83-26.5L258.83-26.5Q261.83-26.5 263.88-25.73 265.93-24.95 267.11-23.65 268.28-22.35 268.81-20.7 269.33-19.05 269.33-17.35L269.33-17.35 269.33-1.15Q269.33-0.65 269.01-0.33 268.68 0 268.18 0L268.18 0 265.88 0Q265.33 0 265.03-0.33 264.73-0.65 264.73-1.15L264.73-1.15 264.73-3.3Q264.08-2.4 262.98-1.53 261.88-0.65 260.23-0.08 258.58 0.5 256.18 0.5ZM257.23-3.25L257.23-3.25Q259.28-3.25 260.98-4.13 262.68-5 263.66-6.85 264.63-8.7 264.63-11.5L264.63-11.5 264.63-12.9 258.83-12.05Q255.28-11.55 253.48-10.38 251.68-9.2 251.68-7.4L251.68-7.4Q251.68-6 252.51-5.08 253.33-4.15 254.61-3.7 255.88-3.25 257.23-3.25Z" opacity="1" transform="matrix(1,0,0,1,0,0)" fill="#ffffff" class="undefined-text-0" data-fill-palette-color="quaternary" id="text-0"></path></svg></g></svg></g><g transform="matrix(1,0,0,1,0,35.79351397108973)"><svg viewBox="0 0 213.1584412271571 17.89565660536525" height="17.89565660536525" width="213.1584412271571"><g transform="matrix(1,0,0,1,0,0)"><svg width="213.1584412271571" viewBox="0.3500000238418579 -36.150001525878906 538.9800415039062 45.25" height="17.89565660536525" data-palette-color="#ffffff"><path d="M8.15 0L0.35-34.3 5.55-34.3 10.4-11.4Q10.8-9.7 11.35-5.75L11.35-5.75 11.55-5.75Q11.9-9.05 12.35-11.4L12.35-11.4 16.35-34.3 22.8-34.3 27-11.4Q27.4-9.4 27.85-5.75L27.85-5.75 28.05-5.75Q28.5-9.45 28.95-11.4L28.95-11.4 33.85-34.3 38.35-34.3 30.55 0 24.6 0 20.25-22.8Q19.85-24.85 19.4-29.05L19.4-29.05 19.2-29.05Q18.7-24.75 18.35-22.8L18.35-22.8 14.05 0 8.15 0ZM74.97 0.6Q69.92 0.6 67.42-2.7 64.92-6 64.92-13.15L64.92-13.15Q64.92-20.2 67.4-23.55 69.87-26.9 74.87-26.9L74.87-26.9Q79.37-26.9 81.57-23.83 83.77-20.75 83.77-14.1L83.77-14.1 83.77-11.85 69.82-11.85Q69.87-7.55 71.1-5.5 72.32-3.45 75.02-3.45L75.02-3.45Q76.87-3.45 78-4.95 79.12-6.45 79.12-9.05L79.12-9.05 83.77-9.05Q83.77-4.55 81.35-1.98 78.92 0.6 74.97 0.6L74.97 0.6ZM69.87-15.75L78.87-15.75Q78.87-19.2 77.87-21.03 76.87-22.85 74.87-22.85L74.87-22.85Q72.47-22.85 71.3-21.1 70.12-19.35 69.87-15.75L69.87-15.75ZM123.99 0.6Q122.14 0.6 120.64-0.35 119.14-1.3 118.19-3.1L118.19-3.1 117.94-3.1 117.34 0 113.64 0 113.64-36.15 118.34-36.15 118.34-23.75 118.59-23.75Q119.29-25.25 120.82-26.08 122.34-26.9 124.29-26.9L124.29-26.9Q127.84-26.9 130.04-23.48 132.24-20.05 132.24-13.2L132.24-13.2Q132.24-6.2 130.07-2.8 127.89 0.6 123.99 0.6L123.99 0.6ZM122.84-3.6Q125.14-3.6 126.24-5.68 127.34-7.75 127.34-12.2L127.34-12.2 127.34-14.1Q127.34-18.55 126.24-20.63 125.14-22.7 122.84-22.7L122.84-22.7Q118.34-22.7 118.34-13.95L118.34-13.95 118.34-12.2Q118.34-3.6 122.84-3.6L122.84-3.6ZM198.93 0L198.93-34.3 209.73-34.3Q216.03-34.3 219.51-30.05 222.98-25.8 222.98-17.65L222.98-17.65Q222.98-9 219.51-4.5 216.03 0 209.73 0L209.73 0 198.93 0ZM203.93-4.55L209.28-4.55Q213.28-4.55 215.51-7.55 217.73-10.55 217.73-16.4L217.73-16.4 217.73-18.9Q217.73-24.25 215.51-27 213.28-29.75 209.28-29.75L209.28-29.75 203.93-29.75 203.93-4.55ZM262.16 0.6Q257.11 0.6 254.61-2.7 252.11-6 252.11-13.15L252.11-13.15Q252.11-20.2 254.58-23.55 257.06-26.9 262.06-26.9L262.06-26.9Q266.56-26.9 268.76-23.83 270.96-20.75 270.96-14.1L270.96-14.1 270.96-11.85 257.01-11.85Q257.06-7.55 258.28-5.5 259.51-3.45 262.21-3.45L262.21-3.45Q264.06-3.45 265.18-4.95 266.31-6.45 266.31-9.05L266.31-9.05 270.96-9.05Q270.96-4.55 268.53-1.98 266.11 0.6 262.16 0.6L262.16 0.6ZM257.06-15.75L266.06-15.75Q266.06-19.2 265.06-21.03 264.06-22.85 262.06-22.85L262.06-22.85Q259.66-22.85 258.48-21.1 257.31-19.35 257.06-15.75L257.06-15.75ZM308.38 0.6Q304.08 0.6 301.83-1.65 299.58-3.9 299.58-7.3L299.58-7.3Q299.58-7.85 299.6-8.03 299.63-8.2 299.63-8.25L299.63-8.25 304.48-8.25 304.48-7.8Q304.53-5.55 305.65-4.48 306.78-3.4 308.58-3.4L308.58-3.4Q310.18-3.4 311.28-4.33 312.38-5.25 312.38-7L312.38-7Q312.38-8.3 311.7-9.13 311.03-9.95 310.03-10.43 309.03-10.9 307.28-11.5L307.28-11.5Q304.98-12.25 303.55-12.98 302.13-13.7 301.13-15.23 300.13-16.75 300.13-19.25L300.13-19.25Q300.13-22.85 302.48-24.88 304.83-26.9 308.68-26.9L308.68-26.9Q312.33-26.9 314.5-24.88 316.68-22.85 316.68-19.7L316.68-19.7 316.63-18.7 311.78-18.7 311.78-19.05Q311.78-20.75 310.95-21.83 310.13-22.9 308.38-22.9L308.38-22.9Q306.58-22.9 305.75-21.9 304.93-20.9 304.93-19.6L304.93-19.6Q304.93-18 306.1-17.23 307.28-16.45 309.73-15.7L309.73-15.7Q312.13-14.95 313.6-14.2 315.08-13.45 316.15-11.88 317.23-10.3 317.23-7.65L317.23-7.65Q317.23-3.45 314.83-1.43 312.43 0.6 308.38 0.6L308.38 0.6ZM347.5 0L347.5-26.3 352.2-26.3 352.2 0 347.5 0ZM347.4-31.1L347.4-36.15 352.2-36.15 352.2-31.1 347.4-31.1ZM387.52 9.1Q384.62 9.1 382.92 7.35 381.22 5.6 381.22 2.9L381.22 2.9Q381.22 1 382.14-0.48 383.07-1.95 384.62-2.6L384.62-2.6Q383.62-3.25 383.04-4.3 382.47-5.35 382.47-6.55L382.47-6.55Q382.47-8.15 383.49-9.33 384.52-10.5 386.22-11.1L386.22-11.1Q384.72-12.3 383.92-14.05 383.12-15.8 383.12-18L383.12-18Q383.12-22.15 385.49-24.53 387.87-26.9 392.07-26.9L392.07-26.9Q394.37-26.9 396.07-26L396.07-26Q398.77-27.65 399.07-30.6L399.07-30.6 403.12-30.6Q403.12-28.1 401.97-26.4 400.82-24.7 398.77-24.15L398.77-24.15Q401.02-21.75 401.02-18L401.02-18Q401.02-13.95 398.67-11.55 396.32-9.15 392.22-9.15L392.22-9.15 389.52-9.15Q388.57-9.15 387.94-8.53 387.32-7.9 387.32-7L387.32-7Q387.32-6.15 387.94-5.55 388.57-4.95 389.47-4.95L389.47-4.95 397.47-4.95Q400.17-4.95 401.87-3.13 403.57-1.3 403.57 1.45L403.57 1.45Q403.57 4.8 401.42 6.95 399.27 9.1 395.62 9.1L395.62 9.1 387.52 9.1ZM392.02-12.85Q394.07-12.85 395.17-14.23 396.27-15.6 396.27-18L396.27-18Q396.27-20.5 395.19-21.83 394.12-23.15 392.02-23.15L392.02-23.15Q389.97-23.15 388.89-21.8 387.82-20.45 387.82-18L387.82-18Q387.82-15.55 388.89-14.2 389.97-12.85 392.02-12.85L392.02-12.85ZM388.77 5.25L395.87 5.25Q397.12 5.25 397.97 4.42 398.82 3.6 398.82 2.35L398.82 2.35Q398.82 1.1 398.07 0.3 397.32-0.5 395.97-0.5L395.97-0.5 388.77-0.5Q387.42-0.5 386.67 0.3 385.92 1.1 385.92 2.35L385.92 2.35Q385.92 3.6 386.69 4.42 387.47 5.25 388.77 5.25L388.77 5.25ZM431.89 0L431.89-26.3 435.59-26.3 436.19-23.2 436.49-23.2Q437.54-25 439.19-25.95 440.84-26.9 442.94-26.9L442.94-26.9Q449.59-26.9 449.59-18.8L449.59-18.8 449.59 0 444.89 0 444.89-18.05Q444.89-20.6 443.96-21.65 443.04-22.7 441.24-22.7L441.24-22.7Q439.29-22.7 437.94-20.88 436.59-19.05 436.59-16.1L436.59-16.1 436.59 0 431.89 0ZM489.46 0.6Q484.41 0.6 481.91-2.7 479.41-6 479.41-13.15L479.41-13.15Q479.41-20.2 481.89-23.55 484.36-26.9 489.36-26.9L489.36-26.9Q493.86-26.9 496.06-23.83 498.26-20.75 498.26-14.1L498.26-14.1 498.26-11.85 484.31-11.85Q484.36-7.55 485.59-5.5 486.81-3.45 489.51-3.45L489.51-3.45Q491.36-3.45 492.49-4.95 493.61-6.45 493.61-9.05L493.61-9.05 498.26-9.05Q498.26-4.55 495.84-1.98 493.41 0.6 489.46 0.6L489.46 0.6ZM484.36-15.75L493.36-15.75Q493.36-19.2 492.36-21.03 491.36-22.85 489.36-22.85L489.36-22.85Q486.96-22.85 485.79-21.1 484.61-19.35 484.36-15.75L484.36-15.75ZM528.13 0L528.13-26.3 531.83-26.3 532.43-22.7 532.73-22.7Q534.13-26.9 537.23-26.9L537.23-26.9Q538.43-26.9 539.33-26.5L539.33-26.5 539.33-21.75 537.73-21.75Q535.58-21.75 534.21-20.3 532.83-18.85 532.83-15.6L532.83-15.6 532.83 0 528.13 0Z" opacity="1" transform="matrix(1,0,0,1,0,0)" fill="#ffffff" class="undefined-text-1" data-fill-palette-color="quaternary" id="text-1"></path></svg></g></svg></g></svg></g></svg></g><g></g></svg></g></svg></g></svg></g></svg></g><defs></defs></svg><rect width="342.85155851775386" height="342.85155851775386" fill="none" stroke="none" visibility="hidden"></rect></g></svg></g></svg>